<mxfile host="app.diagrams.net" modified="2024-03-25T09:52:05.566Z" agent="Mozilla/5.0 (Windows NT 10.0; Win64; x64) AppleWebKit/537.36 (KHTML, like Gecko) Chrome/122.0.0.0 Safari/537.36" etag="W92IFTdnjBCetzvF5LnJ" version="22.1.17" type="device">
  <diagram name="Page-1" id="flhEoR4TVvs2OyCSa56V">
    <mxGraphModel dx="1050" dy="557" grid="1" gridSize="10" guides="1" tooltips="1" connect="1" arrows="1" fold="1" page="1" pageScale="1" pageWidth="850" pageHeight="1100" math="0" shadow="0">
      <root>
        <mxCell id="0" />
        <mxCell id="1" parent="0" />
        <mxCell id="B3E3ref3XT7dABn63aZx-1" value="Customer" style="shape=umlActor;verticalLabelPosition=bottom;verticalAlign=top;html=1;outlineConnect=0;" parent="1" vertex="1">
          <mxGeometry x="90" y="190" width="30" height="60" as="geometry" />
        </mxCell>
        <mxCell id="B3E3ref3XT7dABn63aZx-2" value="Admin" style="shape=umlActor;verticalLabelPosition=bottom;verticalAlign=top;html=1;outlineConnect=0;" parent="1" vertex="1">
          <mxGeometry x="90" y="460" width="30" height="60" as="geometry" />
        </mxCell>
        <mxCell id="B3E3ref3XT7dABn63aZx-3" value="Instant Order eCommerce System" style="swimlane;whiteSpace=wrap;html=1;" parent="1" vertex="1">
          <mxGeometry x="170" y="140" width="470" height="520" as="geometry" />
        </mxCell>
        <mxCell id="B3E3ref3XT7dABn63aZx-4" value="View product" style="ellipse;whiteSpace=wrap;html=1;" parent="B3E3ref3XT7dABn63aZx-3" vertex="1">
          <mxGeometry x="70" y="30" width="120" height="80" as="geometry" />
        </mxCell>
        <mxCell id="B3E3ref3XT7dABn63aZx-5" value="Checkout" style="ellipse;whiteSpace=wrap;html=1;" parent="B3E3ref3XT7dABn63aZx-3" vertex="1">
          <mxGeometry x="70" y="220" width="120" height="80" as="geometry" />
        </mxCell>
        <mxCell id="B3E3ref3XT7dABn63aZx-6" value="Check credentials" style="ellipse;whiteSpace=wrap;html=1;" parent="B3E3ref3XT7dABn63aZx-3" vertex="1">
          <mxGeometry x="310" y="220" width="120" height="80" as="geometry" />
        </mxCell>
        <mxCell id="B3E3ref3XT7dABn63aZx-7" value="&amp;lt;&amp;lt;include&amp;gt;&amp;gt;" style="endArrow=openThin;dashed=1;html=1;rounded=0;entryX=0;entryY=0.5;entryDx=0;entryDy=0;exitX=1;exitY=0.5;exitDx=0;exitDy=0;endFill=0;" parent="B3E3ref3XT7dABn63aZx-3" source="B3E3ref3XT7dABn63aZx-5" target="B3E3ref3XT7dABn63aZx-6" edge="1">
          <mxGeometry width="50" height="50" relative="1" as="geometry">
            <mxPoint x="220" y="250" as="sourcePoint" />
            <mxPoint x="270" y="200" as="targetPoint" />
          </mxGeometry>
        </mxCell>
        <mxCell id="B3E3ref3XT7dABn63aZx-10" value="View Orders" style="ellipse;whiteSpace=wrap;html=1;" parent="B3E3ref3XT7dABn63aZx-3" vertex="1">
          <mxGeometry x="70" y="420" width="120" height="80" as="geometry" />
        </mxCell>
        <mxCell id="B3E3ref3XT7dABn63aZx-12" value="Access Denied" style="ellipse;whiteSpace=wrap;html=1;" parent="B3E3ref3XT7dABn63aZx-3" vertex="1">
          <mxGeometry x="310" y="390" width="120" height="80" as="geometry" />
        </mxCell>
        <mxCell id="B3E3ref3XT7dABn63aZx-13" value="" style="endArrow=openThin;dashed=1;html=1;rounded=0;exitX=0.5;exitY=0;exitDx=0;exitDy=0;entryX=0.5;entryY=1;entryDx=0;entryDy=0;endFill=0;" parent="B3E3ref3XT7dABn63aZx-3" source="B3E3ref3XT7dABn63aZx-12" target="B3E3ref3XT7dABn63aZx-6" edge="1">
          <mxGeometry width="50" height="50" relative="1" as="geometry">
            <mxPoint x="360" y="240" as="sourcePoint" />
            <mxPoint x="410" y="190" as="targetPoint" />
          </mxGeometry>
        </mxCell>
        <mxCell id="B3E3ref3XT7dABn63aZx-14" value="&amp;lt;&amp;lt;extend&amp;gt;&amp;gt;" style="edgeLabel;html=1;align=center;verticalAlign=middle;resizable=0;points=[];" parent="B3E3ref3XT7dABn63aZx-13" vertex="1" connectable="0">
          <mxGeometry x="-0.0114" y="-3" relative="1" as="geometry">
            <mxPoint as="offset" />
          </mxGeometry>
        </mxCell>
        <mxCell id="B3E3ref3XT7dABn63aZx-15" value="Add to Cart" style="ellipse;whiteSpace=wrap;html=1;" parent="B3E3ref3XT7dABn63aZx-3" vertex="1">
          <mxGeometry x="70" y="130" width="120" height="80" as="geometry" />
        </mxCell>
        <mxCell id="B3E3ref3XT7dABn63aZx-17" value="Add Products" style="ellipse;whiteSpace=wrap;html=1;" parent="B3E3ref3XT7dABn63aZx-3" vertex="1">
          <mxGeometry x="70" y="320" width="120" height="80" as="geometry" />
        </mxCell>
        <mxCell id="6jZyRWnkHc8fWSEtIz_Z-1" value="&amp;lt;&amp;lt;include&amp;gt;&amp;gt;" style="endArrow=openThin;dashed=1;html=1;rounded=0;entryX=0;entryY=1;entryDx=0;entryDy=0;exitX=1;exitY=0.5;exitDx=0;exitDy=0;endFill=0;" edge="1" parent="B3E3ref3XT7dABn63aZx-3" source="B3E3ref3XT7dABn63aZx-17" target="B3E3ref3XT7dABn63aZx-6">
          <mxGeometry width="50" height="50" relative="1" as="geometry">
            <mxPoint x="200" y="270" as="sourcePoint" />
            <mxPoint x="320" y="270" as="targetPoint" />
          </mxGeometry>
        </mxCell>
        <mxCell id="B3E3ref3XT7dABn63aZx-8" value="" style="endArrow=none;html=1;rounded=0;exitX=1;exitY=0.3333333333333333;exitDx=0;exitDy=0;exitPerimeter=0;entryX=0;entryY=0.5;entryDx=0;entryDy=0;" parent="1" source="B3E3ref3XT7dABn63aZx-1" target="B3E3ref3XT7dABn63aZx-4" edge="1">
          <mxGeometry width="50" height="50" relative="1" as="geometry">
            <mxPoint x="150" y="250" as="sourcePoint" />
            <mxPoint x="200" y="200" as="targetPoint" />
          </mxGeometry>
        </mxCell>
        <mxCell id="B3E3ref3XT7dABn63aZx-9" value="" style="endArrow=none;html=1;rounded=0;exitX=1;exitY=0.3333333333333333;exitDx=0;exitDy=0;exitPerimeter=0;" parent="1" source="B3E3ref3XT7dABn63aZx-1" target="B3E3ref3XT7dABn63aZx-5" edge="1">
          <mxGeometry width="50" height="50" relative="1" as="geometry">
            <mxPoint x="150" y="320" as="sourcePoint" />
            <mxPoint x="200" y="270" as="targetPoint" />
          </mxGeometry>
        </mxCell>
        <mxCell id="B3E3ref3XT7dABn63aZx-11" value="" style="endArrow=none;html=1;rounded=0;entryX=0;entryY=0.5;entryDx=0;entryDy=0;" parent="1" target="B3E3ref3XT7dABn63aZx-10" edge="1">
          <mxGeometry width="50" height="50" relative="1" as="geometry">
            <mxPoint x="120" y="480" as="sourcePoint" />
            <mxPoint x="190" y="470" as="targetPoint" />
          </mxGeometry>
        </mxCell>
        <mxCell id="B3E3ref3XT7dABn63aZx-16" value="" style="endArrow=none;html=1;rounded=0;" parent="1" target="B3E3ref3XT7dABn63aZx-15" edge="1">
          <mxGeometry width="50" height="50" relative="1" as="geometry">
            <mxPoint x="120" y="210" as="sourcePoint" />
            <mxPoint x="180" y="250" as="targetPoint" />
          </mxGeometry>
        </mxCell>
        <mxCell id="B3E3ref3XT7dABn63aZx-18" value="" style="endArrow=none;html=1;rounded=0;exitX=1;exitY=0.3333333333333333;exitDx=0;exitDy=0;exitPerimeter=0;" parent="1" source="B3E3ref3XT7dABn63aZx-2" target="B3E3ref3XT7dABn63aZx-17" edge="1">
          <mxGeometry width="50" height="50" relative="1" as="geometry">
            <mxPoint x="160" y="590" as="sourcePoint" />
            <mxPoint x="210" y="540" as="targetPoint" />
          </mxGeometry>
        </mxCell>
      </root>
    </mxGraphModel>
  </diagram>
</mxfile>
